HIERARCHY
ROOT mixamorig:Hips
{
	OFFSET -0.000008 104.274872 1.554316
	CHANNELS 6 Xposition Yposition Zposition Xrotation Yrotation Zrotation
	JOINT mixamorig:Spine
	{
		OFFSET -0.000005 10.181595 0.131519
		CHANNELS 6 Xposition Yposition Zposition Xrotation Yrotation Zrotation
		JOINT mixamorig:Spine1
		{
			OFFSET -0.000000 9.893959 -1.470707
			CHANNELS 6 Xposition Yposition Zposition Xrotation Yrotation Zrotation
			JOINT mixamorig:Spine2
			{
				OFFSET -0.000000 9.220757 -1.370641
				CHANNELS 6 Xposition Yposition Zposition Xrotation Yrotation Zrotation
				JOINT mixamorig:Neck
				{
					OFFSET 0.000001 16.740417 -2.049036
					CHANNELS 6 Xposition Yposition Zposition Xrotation Yrotation Zrotation
					JOINT mixamorig:Head
					{
						OFFSET 0.000000 9.617874 1.685006
						CHANNELS 6 Xposition Yposition Zposition Xrotation Yrotation Zrotation
						JOINT mixamorig:HeadTop_End
						{
							OFFSET 0.000002 22.037354 7.501101
							CHANNELS 6 Xposition Yposition Zposition Xrotation Yrotation Zrotation
							End Site
							{
								OFFSET 0.000168 2310.654297 -282.823242
							}
						}
					}
				}
				JOINT mixamorig:RightShoulder
				{
					OFFSET -4.569970 11.014908 -2.160885
					CHANNELS 6 Xposition Yposition Zposition Xrotation Yrotation Zrotation
					JOINT mixamorig:RightArm
					{
						OFFSET -10.592851 -0.524811 -2.232101
						CHANNELS 6 Xposition Yposition Zposition Xrotation Yrotation Zrotation
						JOINT mixamorig:RightForeArm
						{
							OFFSET -27.841511 0.000031 -0.000004
							CHANNELS 6 Xposition Yposition Zposition Xrotation Yrotation Zrotation
							JOINT mixamorig:RightHand
							{
								OFFSET -28.328831 -0.000015 0.000015
								CHANNELS 6 Xposition Yposition Zposition Xrotation Yrotation Zrotation
								JOINT mixamorig:RightHandThumb1
								{
									OFFSET -2.464806 -1.573990 2.681852
									CHANNELS 6 Xposition Yposition Zposition Xrotation Yrotation Zrotation
									JOINT mixamorig:RightHandThumb2
									{
										OFFSET -3.215179 -1.872803 1.924282
										CHANNELS 6 Xposition Yposition Zposition Xrotation Yrotation Zrotation
										JOINT mixamorig:RightHandThumb3
										{
											OFFSET -2.654831 -1.527969 1.512609
											CHANNELS 6 Xposition Yposition Zposition Xrotation Yrotation Zrotation
											JOINT mixamorig:RightHandThumb4
											{
												OFFSET -2.018814 -1.152008 1.108052
												CHANNELS 6 Xposition Yposition Zposition Xrotation Yrotation Zrotation
												End Site
												{
													OFFSET -188.809540 -114.533607 132.431396
												}
											}
										}
									}
								}
								JOINT mixamorig:RightHandIndex1
								{
									OFFSET -9.108284 -0.517868 2.259835
									CHANNELS 6 Xposition Yposition Zposition Xrotation Yrotation Zrotation
									JOINT mixamorig:RightHandIndex2
									{
										OFFSET -3.699989 0.000000 0.001215
										CHANNELS 6 Xposition Yposition Zposition Xrotation Yrotation Zrotation
										JOINT mixamorig:RightHandIndex3
										{
											OFFSET -2.850006 0.000031 -0.000522
											CHANNELS 6 Xposition Yposition Zposition Xrotation Yrotation Zrotation
											JOINT mixamorig:RightHandIndex4
											{
												OFFSET -2.772186 -0.000015 -0.000020
												CHANNELS 6 Xposition Yposition Zposition Xrotation Yrotation Zrotation
												End Site
												{
													OFFSET -277.218445 0.000000 -0.050231
												}
											}
										}
									}
								}
								JOINT mixamorig:RightHandMiddle1
								{
									OFFSET -9.532516 -0.000031 -0.000023
									CHANNELS 6 Xposition Yposition Zposition Xrotation Yrotation Zrotation
									JOINT mixamorig:RightHandMiddle2
									{
										OFFSET -3.700005 -0.000015 0.003713
										CHANNELS 6 Xposition Yposition Zposition Xrotation Yrotation Zrotation
										JOINT mixamorig:RightHandMiddle3
										{
											OFFSET -2.949974 0.000015 -0.002054
											CHANNELS 6 Xposition Yposition Zposition Xrotation Yrotation Zrotation
											JOINT mixamorig:RightHandMiddle4
											{
												OFFSET -2.946640 0.000000 -0.000156
												CHANNELS 6 Xposition Yposition Zposition Xrotation Yrotation Zrotation
												End Site
												{
													OFFSET -294.664337 0.000000 -0.113670
												}
											}
										}
									}
								}
								JOINT mixamorig:RightHandRing1
								{
									OFFSET -9.103600 -0.043076 -1.865134
									CHANNELS 6 Xposition Yposition Zposition Xrotation Yrotation Zrotation
									JOINT mixamorig:RightHandRing2
									{
										OFFSET -3.379288 0.000000 -0.001055
										CHANNELS 6 Xposition Yposition Zposition Xrotation Yrotation Zrotation
										JOINT mixamorig:RightHandRing3
										{
											OFFSET -2.889687 -0.000015 0.000379
											CHANNELS 6 Xposition Yposition Zposition Xrotation Yrotation Zrotation
											JOINT mixamorig:RightHandRing4
											{
												OFFSET -2.638809 -0.000015 0.000941
												CHANNELS 6 Xposition Yposition Zposition Xrotation Yrotation Zrotation
												End Site
												{
													OFFSET -263.880371 0.000000 0.516020
												}
											}
										}
									}
								}
								JOINT mixamorig:RightHandPinky1
								{
									OFFSET -8.076683 -0.486710 -3.806280
									CHANNELS 6 Xposition Yposition Zposition Xrotation Yrotation Zrotation
									JOINT mixamorig:RightHandPinky2
									{
										OFFSET -3.600014 -0.000015 -0.003747
										CHANNELS 6 Xposition Yposition Zposition Xrotation Yrotation Zrotation
										JOINT mixamorig:RightHandPinky3
										{
											OFFSET -2.099983 0.000000 -0.005739
											CHANNELS 6 Xposition Yposition Zposition Xrotation Yrotation Zrotation
											JOINT mixamorig:RightHandPinky4
											{
												OFFSET -2.115768 -0.000031 -0.003680
												CHANNELS 6 Xposition Yposition Zposition Xrotation Yrotation Zrotation
												End Site
												{
													OFFSET -211.577087 0.000000 -0.350686
												}
											}
										}
									}
								}
							}
						}
					}
				}
				JOINT mixamorig:LeftShoulder
				{
					OFFSET 4.570447 11.014725 -2.160855
					CHANNELS 6 Xposition Yposition Zposition Xrotation Yrotation Zrotation
					JOINT mixamorig:LeftArm
					{
						OFFSET 10.592371 -0.524597 -2.232119
						CHANNELS 6 Xposition Yposition Zposition Xrotation Yrotation Zrotation
						JOINT mixamorig:LeftForeArm
						{
							OFFSET 27.841532 -0.000031 0.000026
							CHANNELS 6 Xposition Yposition Zposition Xrotation Yrotation Zrotation
							JOINT mixamorig:LeftHand
							{
								OFFSET 28.328846 -0.000061 0.000022
								CHANNELS 6 Xposition Yposition Zposition Xrotation Yrotation Zrotation
								JOINT mixamorig:LeftHandThumb1
								{
									OFFSET 2.466141 -1.576172 2.681732
									CHANNELS 6 Xposition Yposition Zposition Xrotation Yrotation Zrotation
									JOINT mixamorig:LeftHandThumb2
									{
										OFFSET 3.217812 -1.872070 1.916482
										CHANNELS 6 Xposition Yposition Zposition Xrotation Yrotation Zrotation
										JOINT mixamorig:LeftHandThumb3
										{
											OFFSET 2.656029 -1.528778 1.514513
											CHANNELS 6 Xposition Yposition Zposition Xrotation Yrotation Zrotation
											JOINT mixamorig:LeftHandThumb4
											{
												OFFSET 2.020889 -1.154053 1.115139
												CHANNELS 6 Xposition Yposition Zposition Xrotation Yrotation Zrotation
												End Site
												{
													OFFSET 190.885437 -115.081749 130.048782
												}
											}
										}
									}
								}
								JOINT mixamorig:LeftHandIndex1
								{
									OFFSET 9.109314 -0.518021 2.259871
									CHANNELS 6 Xposition Yposition Zposition Xrotation Yrotation Zrotation
									JOINT mixamorig:LeftHandIndex2
									{
										OFFSET 3.699989 0.000000 -0.000322
										CHANNELS 6 Xposition Yposition Zposition Xrotation Yrotation Zrotation
										JOINT mixamorig:LeftHandIndex3
										{
											OFFSET 2.850006 0.000000 0.000352
											CHANNELS 6 Xposition Yposition Zposition Xrotation Yrotation Zrotation
											JOINT mixamorig:LeftHandIndex4
											{
												OFFSET 2.774864 -0.000031 -0.000027
												CHANNELS 6 Xposition Yposition Zposition Xrotation Yrotation Zrotation
												End Site
												{
													OFFSET 277.486267 0.000000 -0.009857
												}
											}
										}
									}
								}
								JOINT mixamorig:LeftHandMiddle1
								{
									OFFSET 9.533394 0.000061 0.000044
									CHANNELS 6 Xposition Yposition Zposition Xrotation Yrotation Zrotation
									JOINT mixamorig:LeftHandMiddle2
									{
										OFFSET 3.699989 -0.000015 -0.000231
										CHANNELS 6 Xposition Yposition Zposition Xrotation Yrotation Zrotation
										JOINT mixamorig:LeftHandMiddle3
										{
											OFFSET 2.949997 -0.000015 -0.000059
											CHANNELS 6 Xposition Yposition Zposition Xrotation Yrotation Zrotation
											JOINT mixamorig:LeftHandMiddle4
											{
												OFFSET 2.952896 0.000031 0.000063
												CHANNELS 6 Xposition Yposition Zposition Xrotation Yrotation Zrotation
												End Site
												{
													OFFSET 295.289337 0.000000 0.022810
												}
											}
										}
									}
								}
								JOINT mixamorig:LeftHandRing1
								{
									OFFSET 9.104523 -0.042999 -1.865074
									CHANNELS 6 Xposition Yposition Zposition Xrotation Yrotation Zrotation
									JOINT mixamorig:LeftHandRing2
									{
										OFFSET 3.150009 -0.000031 0.000043
										CHANNELS 6 Xposition Yposition Zposition Xrotation Yrotation Zrotation
										JOINT mixamorig:LeftHandRing3
										{
											OFFSET 2.949982 -0.000015 0.000040
											CHANNELS 6 Xposition Yposition Zposition Xrotation Yrotation Zrotation
											JOINT mixamorig:LeftHandRing4
											{
												OFFSET 2.644348 0.000000 0.000057
												CHANNELS 6 Xposition Yposition Zposition Xrotation Yrotation Zrotation
												End Site
												{
													OFFSET 264.434631 0.000000 0.012105
												}
											}
										}
									}
								}
								JOINT mixamorig:LeftHandPinky1
								{
									OFFSET 8.077789 -0.486847 -3.806259
									CHANNELS 6 Xposition Yposition Zposition Xrotation Yrotation Zrotation
									JOINT mixamorig:LeftHandPinky2
									{
										OFFSET 3.599953 0.000031 0.014727
										CHANNELS 6 Xposition Yposition Zposition Xrotation Yrotation Zrotation
										JOINT mixamorig:LeftHandPinky3
										{
											OFFSET 2.100021 0.000015 0.007705
											CHANNELS 6 Xposition Yposition Zposition Xrotation Yrotation Zrotation
											JOINT mixamorig:LeftHandPinky4
											{
												OFFSET 2.125504 0.000031 0.007517
												CHANNELS 6 Xposition Yposition Zposition Xrotation Yrotation Zrotation
												End Site
												{
													OFFSET 212.550781 0.000000 0.625752
												}
											}
										}
									}
								}
							}
						}
					}
				}
			}
		}
	}
	JOINT mixamorig:RightUpLeg
	{
		OFFSET -8.207787 -6.751648 -1.599560
		CHANNELS 6 Xposition Yposition Zposition Xrotation Yrotation Zrotation
		JOINT mixamorig:RightLeg
		{
			OFFSET -0.000002 -44.370117 0.345942
			CHANNELS 6 Xposition Yposition Zposition Xrotation Yrotation Zrotation
			JOINT mixamorig:RightFoot
			{
				OFFSET 0.000003 -44.423679 -3.043532
				CHANNELS 6 Xposition Yposition Zposition Xrotation Yrotation Zrotation
				JOINT mixamorig:RightToeBase
				{
					OFFSET -0.000002 -8.728671 10.710558
					CHANNELS 6 Xposition Yposition Zposition Xrotation Yrotation Zrotation
					JOINT mixamorig:RightToe_End
					{
						OFFSET -0.000001 -0.000679 9.278119
						CHANNELS 6 Xposition Yposition Zposition Xrotation Yrotation Zrotation
						End Site
						{
							OFFSET 0.000000 -0.067690 927.812134
						}
					}
				}
			}
		}
	}
	JOINT mixamorig:LeftUpLeg
	{
		OFFSET 8.207793 -6.751686 -1.599556
		CHANNELS 6 Xposition Yposition Zposition Xrotation Yrotation Zrotation
		JOINT mixamorig:LeftLeg
		{
			OFFSET -0.000004 -44.370014 0.346954
			CHANNELS 6 Xposition Yposition Zposition Xrotation Yrotation Zrotation
			JOINT mixamorig:LeftFoot
			{
				OFFSET -0.000001 -44.423672 -3.044401
				CHANNELS 6 Xposition Yposition Zposition Xrotation Yrotation Zrotation
				JOINT mixamorig:LeftToeBase
				{
					OFFSET -0.000002 -8.728669 10.710558
					CHANNELS 6 Xposition Yposition Zposition Xrotation Yrotation Zrotation
					JOINT mixamorig:LeftToe_End
					{
						OFFSET -0.000003 -0.000679 9.278133
						CHANNELS 6 Xposition Yposition Zposition Xrotation Yrotation Zrotation
						End Site
						{
							OFFSET 0.000000 -0.068021 927.813477
						}
					}
				}
			}
		}
	}
}
MOTION
Frames: 3
Frame Time: 0.033333
0.000006 104.270477 1.554256 0.000010 0.000003 -0.000113 -0.000005 10.181587 0.131522 0.000001 -0.000003 0.000084 -0.000000 9.893967 -1.470711 0.000001 0.000000 -0.000000 -0.000000 9.220802 -1.370642 0.000000 -0.000000 -0.000000 0.000001 16.740433 -2.049030 0.000000 -0.000000 -0.000000 0.000000 9.617859 1.685014 0.000000 0.000000 0.000000 0.000002 22.037384 7.501101 0.000000 -0.000000 0.000000 -4.569968 11.014880 -2.160881 0.000008 0.000001 -0.000038 -10.592880 -0.524734 -2.231941 73.907913 23.334949 -17.660359 -27.841528 0.000016 0.000548 -59.821638 109.795045 78.597924 -28.328829 0.000006 0.000035 -0.000323 -0.000044 0.000007 -2.464444 -1.573806 2.682349 -43.567892 -162.401285 0.881683 -3.215291 -1.872590 1.924652 155.643619 31.361073 1.602261 -2.654936 -1.527892 1.513090 147.352370 26.430132 -41.380090 -2.018830 -1.152003 1.108067 -0.000001 -0.000005 0.000000 -9.108395 -0.517555 2.260124 99.337342 17.121814 -20.164516 -3.700066 0.000323 0.001513 95.211478 13.764284 -15.036559 -2.850075 0.000368 -0.000278 92.937414 10.569805 -11.121707 -2.772157 -0.000015 -0.000017 -0.000000 -0.000000 0.000000 -9.532615 0.000261 0.000234 91.189890 16.278098 -16.760555 -3.700065 0.000333 0.003959 89.469864 12.237371 -12.031548 -2.950059 0.000332 -0.001837 89.171022 10.988472 -10.824623 -2.946642 0.000016 -0.000159 0.000001 0.000001 -0.000002 -9.103708 -0.042753 -1.864885 87.333674 18.389475 -17.523142 -3.379333 0.000311 -0.000825 87.809534 11.198902 -10.798275 -2.889755 0.000346 0.000608 92.227990 6.663889 -6.974713 -2.638813 -0.000013 0.000945 0.000001 0.000000 -0.000001 -8.076756 -0.486390 -3.806060 78.870995 16.922108 -13.825197 -3.600032 0.000269 -0.003561 79.947631 8.737282 -7.028908 -2.100024 0.000314 -0.005540 82.084264 4.985118 -4.151165 -2.115776 -0.000055 -0.003681 0.000001 0.000000 -0.000003 4.570446 11.014691 -2.160851 -0.000018 0.000010 -0.000021 10.592414 -0.524468 -2.232361 73.805091 -17.401471 13.110584 27.841835 0.000078 -0.000211 105.606384 -69.459807 84.815418 28.328835 -0.000028 0.000024 0.000024 -0.000088 -0.000001 2.466078 -1.576173 2.681897 -25.621969 154.046830 -35.182567 3.217769 -1.871692 1.916368 158.953829 -32.508630 -5.582291 2.656095 -1.528639 1.514465 142.501734 -26.976191 48.584375 2.020898 -1.154065 1.115154 0.000001 0.000003 0.000006 9.109367 -0.517854 2.259738 85.245569 -17.309986 15.936985 3.700053 0.000150 -0.000455 82.012185 -16.907437 14.741978 2.850047 0.000185 0.000227 80.751216 -13.904055 11.838006 2.774878 -0.000014 -0.000027 -0.000000 0.000003 0.000001 9.533464 0.000201 -0.000079 85.388757 -15.949800 14.721073 3.700049 0.000164 -0.000358 86.842256 -14.379848 13.613241 2.950074 0.000163 -0.000193 85.007086 -17.832299 16.366236 2.952861 -0.000015 0.000064 -0.000000 -0.000001 -0.000001 9.104577 -0.042848 -1.865217 83.183160 -15.062063 13.386809 3.150074 0.000216 -0.000102 91.096548 -11.873527 12.103134 2.950022 0.000185 -0.000066 91.916417 -13.831363 14.298975 2.644325 0.000030 0.000061 -0.000002 -0.000001 0.000000 8.077831 -0.486715 -3.806399 76.323908 -15.400972 12.592016 3.599991 0.000182 0.014571 80.264135 -11.325956 9.978973 2.100032 0.000187 0.007537 83.099333 -11.649212 10.758631 2.125511 -0.000016 0.007518 0.000001 0.000003 -0.000000 -8.207786 -6.751667 -1.599560 -0.077001 -0.000003 0.000080 -0.000002 -44.370110 0.345938 0.153719 -0.000000 -0.000000 0.000000 -44.423679 -3.043532 -0.076700 0.000000 -0.000002 -0.000006 -8.728667 10.710559 -0.000009 -0.000000 -0.000000 -0.000001 -0.000679 9.278123 0.000000 -0.000000 -0.000000 8.207792 -6.751710 -1.599556 -0.074518 -0.000003 0.000081 -0.000002 -44.370014 0.346960 0.148822 0.000002 0.000000 -0.000001 -44.423664 -3.044403 -0.074314 0.000000 -0.000002 -0.000004 -8.728671 10.710558 0.000007 -0.000000 -0.000000 0.000000 -0.000680 9.278137 -0.000000 0.000000 -0.000001 
0.000006 104.270477 1.554256 0.000010 0.000003 -0.000113 -0.000005 10.181587 0.131522 0.000001 -0.000003 0.000084 -0.000000 9.893967 -1.470711 0.000001 0.000000 -0.000000 -0.000000 9.220802 -1.370642 0.000000 -0.000000 -0.000000 0.000001 16.740433 -2.049030 0.000000 -0.000000 -0.000000 0.000000 9.617859 1.685014 0.000000 0.000000 0.000000 0.000002 22.037384 7.501101 0.000000 -0.000000 0.000000 -4.569968 11.014880 -2.160881 0.000008 0.000001 -0.000038 -10.592879 -0.524766 -2.231900 74.517897 29.440977 -22.603044 -27.841526 0.000013 0.000556 -56.443454 106.116763 71.032000 -28.328802 0.000017 0.000030 -0.000318 -0.000045 0.000005 -2.464422 -1.573750 2.682316 -49.521071 -165.614711 -14.223708 -3.215268 -1.872582 1.924646 152.647133 31.590721 5.400275 -2.654974 -1.527865 1.513069 144.169338 27.551443 -36.195949 -2.018816 -1.151994 1.108061 -0.000003 -0.000001 0.000004 -9.108386 -0.517556 2.260121 97.457463 15.362612 -17.526052 -3.700056 0.000330 0.001498 95.837383 11.344111 -12.528353 -2.850086 0.000371 -0.000265 94.472520 9.388597 -10.146821 -2.772172 0.000001 -0.000021 0.000003 -0.000003 0.000000 -9.532590 0.000270 0.000221 89.112440 15.837713 -15.737265 -3.700066 0.000335 0.003939 89.604132 10.587415 -10.422542 -2.950046 0.000347 -0.001828 91.144455 10.480674 -10.683774 -2.946641 0.000002 -0.000155 0.000002 -0.000001 0.000001 -9.103705 -0.042759 -1.864884 86.430109 17.951238 -16.839925 -3.379321 0.000314 -0.000839 88.950134 8.577831 -8.439448 -2.889756 0.000349 0.000634 95.515681 5.798714 -6.433828 -2.638820 -0.000027 0.000941 -0.000000 0.000000 -0.000002 -8.076756 -0.486394 -3.806062 78.114135 17.928324 -14.463417 -3.600041 0.000278 -0.003553 82.715558 8.466820 -7.143101 -2.100008 0.000323 -0.005504 87.605010 4.818523 -4.413478 -2.115772 -0.000029 -0.003676 0.000004 -0.000001 -0.000005 4.570446 11.014691 -2.160851 -0.000018 0.000010 -0.000021 10.592403 -0.524478 -2.232347 73.431985 -13.424615 10.032672 27.841835 0.000067 -0.000182 106.715279 -71.643719 88.279362 28.328833 -0.000029 0.000015 0.000020 -0.000088 -0.000000 2.466233 -1.576103 2.681850 1.704527 162.956566 -87.746744 3.217816 -1.871744 1.916388 164.901353 -30.641936 5.628421 2.656094 -1.528680 1.514499 142.344052 -26.384585 58.379300 2.020903 -1.154082 1.115154 -0.000001 0.000006 0.000004 9.109384 -0.517870 2.259744 83.971404 -20.634375 18.596319 3.700032 0.000156 -0.000463 83.066862 -13.323641 11.828163 2.850062 0.000185 0.000196 82.808175 -10.164326 8.966461 2.774872 -0.000014 -0.000028 0.000001 -0.000000 -0.000000 9.533479 0.000190 -0.000079 84.094594 -19.294658 17.424175 3.700052 0.000180 -0.000380 87.370216 -10.844115 10.357658 2.950052 0.000185 -0.000202 88.865447 -11.292193 11.075006 2.952871 -0.000015 0.000061 0.000002 -0.000002 0.000001 9.104608 -0.042864 -1.865228 83.808648 -18.736145 16.844438 3.150047 0.000212 -0.000107 89.624410 -10.481696 10.415361 2.950025 0.000181 -0.000086 91.726162 -9.327011 9.612766 2.644333 0.000030 0.000061 0.000000 -0.000001 0.000000 8.077854 -0.486726 -3.806390 77.406172 -19.258360 15.971243 3.600019 0.000185 0.014568 80.144210 -14.478005 12.635103 2.100060 0.000190 0.007542 83.617566 -11.198983 10.450600 2.125515 0.000002 0.007516 0.000000 -0.000001 -0.000001 -8.207786 -6.751667 -1.599560 -0.077001 -0.000003 0.000080 -0.000002 -44.370110 0.345938 0.153719 -0.000000 -0.000000 0.000000 -44.423679 -3.043532 -0.076700 0.000000 -0.000002 -0.000006 -8.728667 10.710559 -0.000009 -0.000000 -0.000000 -0.000001 -0.000679 9.278123 0.000000 -0.000000 -0.000000 8.207792 -6.751710 -1.599556 -0.074518 -0.000003 0.000081 -0.000002 -44.370014 0.346960 0.148822 0.000002 0.000000 -0.000001 -44.423664 -3.044403 -0.074314 0.000000 -0.000002 -0.000004 -8.728671 10.710558 0.000007 -0.000000 -0.000000 0.000000 -0.000680 9.278137 -0.000000 0.000000 -0.000001 
0.000006 104.270477 1.554256 0.000010 0.000003 -0.000113 -0.000005 10.181587 0.131522 0.000001 -0.000003 0.000084 -0.000000 9.893967 -1.470711 0.000001 0.000000 -0.000000 -0.000000 9.220802 -1.370642 0.000000 -0.000000 -0.000000 0.000001 16.740433 -2.049030 0.000000 -0.000000 -0.000000 0.000000 9.617859 1.685014 0.000000 0.000000 0.000000 0.000002 22.037384 7.501101 0.000000 -0.000000 0.000000 -4.569968 11.014880 -2.160881 0.000008 0.000001 -0.000038 -10.592864 -0.524796 -2.231849 74.408129 39.566996 -30.546279 -27.841537 -0.000006 0.000549 -54.569315 103.827488 66.701640 -28.328817 0.000009 0.000029 -0.000322 -0.000042 0.000005 -2.464395 -1.573762 2.682317 -48.075243 -164.217132 -10.392708 -3.215286 -1.872574 1.924660 153.020567 31.132156 2.012753 -2.654960 -1.527859 1.513069 143.451553 27.706206 -35.907452 -2.018834 -1.151997 1.108057 -0.000001 -0.000003 0.000002 -9.108356 -0.517556 2.260114 97.957009 15.855398 -18.241861 -3.700058 0.000340 0.001509 95.536076 11.782614 -12.944720 -2.850078 0.000368 -0.000276 94.265872 9.591791 -10.329054 -2.772173 -0.000001 -0.000022 0.000000 0.000002 0.000001 -9.532594 0.000266 0.000232 89.987968 16.729848 -16.869659 -3.700068 0.000334 0.003935 89.501078 11.273967 -11.083862 -2.950056 0.000336 -0.001835 90.878529 10.842463 -11.001830 -2.946644 0.000002 -0.000159 -0.000002 0.000002 0.000001 -9.103690 -0.042771 -1.864889 86.785688 18.978411 -17.916805 -3.379334 0.000321 -0.000820 89.090372 9.925044 -9.786611 -2.889750 0.000345 0.000654 95.529082 6.529679 -7.240489 -2.638793 -0.000011 0.000944 0.000002 -0.000000 0.000003 -8.076732 -0.486396 -3.806062 78.544546 18.930776 -15.399133 -3.600030 0.000257 -0.003548 82.416027 9.973499 -8.420763 -2.100019 0.000316 -0.005504 87.566215 5.832398 -5.379288 -2.115779 -0.000054 -0.003679 0.000002 0.000001 -0.000002 4.570446 11.014691 -2.160851 -0.000018 0.000010 -0.000021 10.592435 -0.524462 -2.232376 73.706477 -24.415479 18.422320 27.841835 0.000049 -0.000172 107.791361 -75.106918 93.019424 28.328835 -0.000015 0.000022 0.000026 -0.000088 -0.000001 2.466245 -1.576066 2.681835 4.203824 164.534544 -92.611689 3.217832 -1.871746 1.916399 166.191507 -29.609823 9.961903 2.656097 -1.528683 1.514487 143.866419 -25.722448 59.312249 2.020891 -1.154063 1.115147 0.000000 -0.000000 0.000003 9.109384 -0.517867 2.259729 84.178892 -21.610228 19.549769 3.700046 0.000161 -0.000460 82.871669 -13.877967 12.278868 2.850049 0.000183 0.000203 82.276452 -10.649061 9.307511 2.774877 -0.000046 -0.000028 0.000000 -0.000002 0.000001 9.533471 0.000210 -0.000085 84.006812 -19.583025 17.658829 3.700041 0.000183 -0.000371 86.764228 -11.007343 10.403531 2.950062 0.000182 -0.000194 88.158713 -11.555280 11.194946 2.952845 -0.000031 0.000067 0.000002 -0.000001 -0.000001 9.104608 -0.042865 -1.865219 84.329436 -18.840322 17.091625 3.150050 0.000214 -0.000110 88.494526 -10.706039 10.431654 2.950019 0.000185 -0.000093 90.290852 -9.588042 9.638332 2.644325 0.000044 0.000055 -0.000001 0.000001 -0.000000 8.077855 -0.486714 -3.806410 77.869436 -19.247849 16.093418 3.600009 0.000170 0.014575 80.042338 -14.564087 12.685573 2.100027 0.000175 0.007546 83.269220 -11.471393 10.631272 2.125503 -0.000015 0.007511 -0.000001 -0.000002 0.000000 -8.207786 -6.751667 -1.599560 -0.077001 -0.000003 0.000080 -0.000002 -44.370110 0.345938 0.153719 -0.000000 -0.000000 0.000000 -44.423679 -3.043532 -0.076700 0.000000 -0.000002 -0.000006 -8.728667 10.710559 -0.000009 -0.000000 -0.000000 -0.000001 -0.000679 9.278123 0.000000 -0.000000 -0.000000 8.207792 -6.751710 -1.599556 -0.074518 -0.000003 0.000081 -0.000002 -44.370014 0.346960 0.148822 0.000002 0.000000 -0.000001 -44.423664 -3.044403 -0.074314 0.000000 -0.000002 -0.000004 -8.728671 10.710558 0.000007 -0.000000 -0.000000 0.000000 -0.000680 9.278137 -0.000000 0.000000 -0.000001 
